<svg width="34" height="24" viewBox="0 0 34 24" fill="none" xmlns="http://www.w3.org/2000/svg">
<path d="M0.333252 1.99165C0.333252 1.07498 1.07659 0.333313 1.99159 0.333313H15.3416C15.7814 0.333313 16.2032 0.508029 16.5142 0.819027C16.8252 1.13003 16.9999 1.55183 16.9999 1.99165C16.9999 2.43146 16.8252 2.85327 16.5142 3.16427C16.2032 3.47526 15.7814 3.64998 15.3416 3.64998H1.99159C1.55177 3.64998 1.12996 3.47526 0.818967 3.16427C0.507969 2.85327 0.333252 2.43146 0.333252 1.99165V1.99165ZM0.333252 12C0.333252 11.0833 1.07659 10.3416 1.99159 10.3416H32.0082C32.4481 10.3416 32.8699 10.5164 33.1809 10.8274C33.4919 11.1384 33.6666 11.5602 33.6666 12C33.6666 12.4398 33.4919 12.8616 33.1809 13.1726C32.8699 13.4836 32.4481 13.6583 32.0082 13.6583H1.99159C1.55177 13.6583 1.12996 13.4836 0.818967 13.1726C0.507969 12.8616 0.333252 12.4398 0.333252 12V12ZM1.99159 20.35C1.55177 20.35 1.12996 20.5247 0.818967 20.8357C0.507969 21.1467 0.333252 21.5685 0.333252 22.0083C0.333252 22.4481 0.507969 22.8699 0.818967 23.1809C1.12996 23.4919 1.55177 23.6666 1.99159 23.6666H22.0083C22.4481 23.6666 22.8699 23.4919 23.1809 23.1809C23.4919 22.8699 23.6666 22.4481 23.6666 22.0083C23.6666 21.5685 23.4919 21.1467 23.1809 20.8357C22.8699 20.5247 22.4481 20.35 22.0083 20.35H1.99159Z" fill="#B59571"/>
</svg>
