<svg width="14" height="14" viewBox="0 0 14 14" fill="none" xmlns="http://www.w3.org/2000/svg">
<path d="M12.831 13.6668C5.72184 13.6768 0.326004 8.21683 0.333504 1.16933C0.333504 0.708496 0.706837 0.333496 1.16684 0.333496H3.36684C3.77934 0.333496 4.13017 0.636829 4.191 1.04516C4.33609 2.02437 4.62094 2.9777 5.03684 3.876L5.12267 4.061C5.18033 4.18549 5.19273 4.3262 5.15774 4.45886C5.12275 4.59151 5.04256 4.7078 4.931 4.78766C4.24934 5.27433 3.98934 6.2535 4.52017 7.01683C5.18849 7.97794 6.02262 8.81235 6.9835 9.481C7.74767 10.011 8.72684 9.751 9.21267 9.07016C9.29245 8.95827 9.40883 8.87778 9.54168 8.84263C9.67453 8.80748 9.81549 8.81987 9.94017 8.87766L10.1243 8.96266C11.0227 9.37933 11.976 9.66433 12.9552 9.80933C13.3635 9.87016 13.6668 10.221 13.6668 10.6343V12.8335C13.6668 12.943 13.6453 13.0514 13.6033 13.1526C13.5614 13.2538 13.4999 13.3457 13.4225 13.423C13.345 13.5004 13.253 13.5618 13.1518 13.6036C13.0506 13.6455 12.9422 13.6669 12.8327 13.6668H12.831Z" fill="#B59571"/>
</svg>
