<svg width="18" height="18" viewBox="0 0 18 18" fill="none" xmlns="http://www.w3.org/2000/svg">
<path d="M9.00016 0.333313C10.1494 0.333313 11.2516 0.789859 12.0643 1.60252C12.877 2.41517 13.3335 3.51737 13.3335 4.66665C13.3335 5.81592 12.877 6.91812 12.0643 7.73078C11.2516 8.54343 10.1494 8.99998 9.00016 8.99998C7.85089 8.99998 6.74869 8.54343 5.93603 7.73078C5.12338 6.91812 4.66683 5.81592 4.66683 4.66665C4.66683 3.51737 5.12338 2.41517 5.93603 1.60252C6.74869 0.789859 7.85089 0.333313 9.00016 0.333313ZM9.00016 11.1666C13.7885 11.1666 17.6668 13.1058 17.6668 15.5V17.6666H0.333496V15.5C0.333496 13.1058 4.21183 11.1666 9.00016 11.1666Z" fill="#333333"/>
</svg>
