<svg width="26" height="21" viewBox="0 0 26 21" fill="none" xmlns="http://www.w3.org/2000/svg">
<path d="M26 8.24461V8.96152C26 9.55544 25.515 10.0369 24.9167 10.0369H24.5556L23.3768 18.2271C23.2244 19.2866 22.3102 20.0737 21.232 20.0737H4.76802C3.68979 20.0737 2.77564 19.2866 2.62311 18.2271L1.44444 10.0369H1.08333C0.485017 10.0369 0 9.55544 0 8.96152V8.24461C0 7.6507 0.485017 7.16924 1.08333 7.16924H4.12303L8.94296 0.590638C9.41218 -0.0497432 10.3155 -0.191378 10.9607 0.27439C11.6059 0.740159 11.7485 1.63688 11.2793 2.27731L7.69514 7.16924H18.3049L14.7207 2.27726C14.2515 1.63688 14.3942 0.740114 15.0393 0.274346C15.6844 -0.191423 16.5879 -0.0498328 17.0571 0.590593L21.877 7.16924H24.9167C25.515 7.16924 26 7.6507 26 8.24461ZM14.0833 16.1306V11.1123C14.0833 10.5183 13.5983 10.0369 13 10.0369C12.4017 10.0369 11.9167 10.5183 11.9167 11.1123V16.1306C11.9167 16.7246 12.4017 17.206 13 17.206C13.5983 17.206 14.0833 16.7246 14.0833 16.1306ZM19.1389 16.1306V11.1123C19.1389 10.5183 18.6539 10.0369 18.0556 10.0369C17.4572 10.0369 16.9722 10.5183 16.9722 11.1123V16.1306C16.9722 16.7246 17.4572 17.206 18.0556 17.206C18.6539 17.206 19.1389 16.7246 19.1389 16.1306ZM9.02778 16.1306V11.1123C9.02778 10.5183 8.54276 10.0369 7.94444 10.0369C7.34613 10.0369 6.86111 10.5183 6.86111 11.1123V16.1306C6.86111 16.7246 7.34613 17.206 7.94444 17.206C8.54276 17.206 9.02778 16.7246 9.02778 16.1306Z" fill="#333333"/>
</svg>
