<svg width="80" height="46" viewBox="0 0 80 46" fill="none" xmlns="http://www.w3.org/2000/svg">
<g clip-path="url(#clip0_1601_42)">
<path d="M70.3331 34.1171C70.0196 34.1171 69.7844 33.9669 69.6015 33.6163C69.4448 33.3159 69.3403 32.8151 69.3403 32.2142V13.7361C69.3403 13.1352 69.4186 12.6344 69.6015 12.3339C69.7844 12.0335 70.0196 11.8833 70.3331 11.8833H72.0836C72.4755 11.8833 72.8151 11.9333 73.1025 11.9834C73.3899 12.0836 73.6512 12.2338 73.8341 12.5342C74.0431 12.8347 74.1737 13.2353 74.2782 13.8362C74.3827 14.3871 74.435 15.1883 74.435 16.1397V29.8606C74.435 31.1125 74.3566 32.0139 74.1737 32.6148C73.9908 33.2157 73.7296 33.6163 73.3899 33.8166C73.0503 34.0169 72.6061 34.1171 72.0836 34.067L70.3331 34.1171ZM64.7158 1.11687C64.4023 1.16695 64.141 1.31718 63.9843 1.61764C63.8275 1.91809 63.7491 2.41886 63.7491 3.01977V42.9806C63.7491 43.5815 63.8275 44.0322 64.0104 44.3827C64.1672 44.6832 64.4284 44.8835 64.742 44.8835H72.0052C73.5205 44.8835 74.8269 44.583 75.8719 43.9821C76.917 43.3812 77.7531 42.4297 78.3801 41.2279C79.0071 40.0261 79.4774 38.4236 79.7387 36.5208C80.0261 34.6179 80.1567 32.4145 80.1567 29.8606V16.1397C80.1567 13.5858 80.0261 11.3825 79.7387 9.4796C79.4513 7.5767 79.0071 6.02434 78.3801 4.82251C77.7531 3.57061 76.917 2.66924 75.8719 2.06832C74.8269 1.46741 73.5467 1.16695 72.0052 1.16695L64.7158 1.11687ZM55.2057 27.507C55.2057 28.7089 55.1796 29.8105 55.1535 30.762C55.1012 31.7134 54.9967 32.5147 54.8399 33.2157C54.6832 33.9168 54.4219 34.4176 54.0561 34.7681C53.7165 35.1186 53.2462 35.3189 52.6453 35.3189C52.0444 35.3189 51.5741 35.1186 51.2345 34.7681C50.8687 34.4176 50.6335 33.9168 50.4506 33.2157C50.2939 32.5647 50.1894 31.7134 50.1371 30.762C50.0849 29.8105 50.0587 28.7089 50.0849 27.507V18.4933C50.0849 17.2915 50.111 16.1898 50.1371 15.2384C50.1894 14.2869 50.2939 13.4857 50.4506 12.7846C50.6074 12.0836 50.8687 11.5828 51.2345 11.2323C51.5741 10.8817 52.0444 10.6814 52.6453 10.6814C53.2462 10.6814 53.7165 10.8817 54.0561 11.2323C54.4219 11.5828 54.657 12.0836 54.8399 12.7846C54.9967 13.4356 55.1012 14.2869 55.1535 15.2384C55.2057 16.1898 55.2057 17.2915 55.2057 18.4933V27.507ZM60.7968 15.1883C60.7968 14.4872 60.7707 13.6359 60.7184 12.6344C60.6662 11.6329 60.5617 10.5813 60.3788 9.42952C60.1959 8.27777 59.9346 7.1761 59.595 6.07442C59.2292 4.97274 58.7589 3.97122 58.158 3.06985C57.5571 2.16847 56.7994 1.41733 55.885 0.866493C54.9706 0.315655 53.8732 0.065274 52.593 0.0151978C51.3128 0.0151978 50.2155 0.315655 49.3011 0.866493C48.3866 1.41733 47.629 2.16847 47.028 3.06985C46.4271 3.97122 45.9569 4.97274 45.5911 6.07442C45.2253 7.1761 44.964 8.32785 44.8073 9.42952C44.6244 10.5813 44.5199 11.6329 44.4676 12.6344C44.4154 13.6359 44.3892 14.4872 44.3892 15.1883V30.8121C44.3892 31.5131 44.4154 32.3644 44.4676 33.3659C44.5199 34.3675 44.6244 35.4191 44.8073 36.5708C44.964 37.7226 45.2514 38.8243 45.5911 39.9259C45.9569 41.0276 46.4271 42.0291 47.028 42.9806C47.629 43.882 48.3866 44.6331 49.3011 45.1339C50.2155 45.6847 51.3128 45.9852 52.593 45.9852C53.8732 45.9852 54.9706 45.6847 55.885 45.1339C56.7994 44.583 57.5571 43.882 58.158 42.9806C58.7589 42.0792 59.2292 41.0777 59.595 39.9259C59.9608 38.8243 60.222 37.6725 60.3788 36.5708C60.5356 35.4191 60.6662 34.3675 60.7184 33.3659C60.7707 32.3644 60.7968 31.5131 60.7968 30.8121V15.1883ZM36.2116 27.507C36.2116 28.7089 36.1855 29.8105 36.1593 30.762C36.1071 31.7134 36.0026 32.5147 35.8458 33.2157C35.6891 33.9168 35.4278 34.4176 35.062 34.7681C34.7224 35.1186 34.2521 35.3189 33.6512 35.3189C33.0503 35.3189 32.58 35.1186 32.2403 34.7681C31.8746 34.4176 31.6394 33.9168 31.4565 33.2157C31.2998 32.5647 31.1953 31.7134 31.143 30.762C31.0908 29.8105 31.0646 28.7089 31.0908 27.507V18.4933C31.0908 17.2915 31.1169 16.1898 31.143 15.2384C31.1953 14.2869 31.2998 13.4857 31.4565 12.7846C31.6133 12.0836 31.8746 11.5828 32.2403 11.2323C32.58 10.8817 33.0503 10.6814 33.6512 10.6814C34.2521 10.6814 34.7224 10.8817 35.062 11.2323C35.4278 11.5828 35.6629 12.0836 35.8458 12.7846C36.0026 13.4356 36.1071 14.2869 36.1593 15.2384C36.2116 16.1898 36.2116 17.2915 36.2116 18.4933V27.507ZM41.8288 15.1883C41.8288 14.4872 41.8027 13.6359 41.7505 12.6344C41.6982 11.6329 41.5937 10.5813 41.4108 9.42952C41.2279 8.27777 40.9667 7.1761 40.627 6.07442C40.2612 4.97274 39.791 3.97122 39.19 3.06985C38.5891 2.16847 37.8314 1.41733 36.917 0.866493C36.0026 0.315655 34.9053 0.065274 33.625 0.0151978C32.3448 0.0151978 31.2475 0.315655 30.3331 0.866493C29.4186 1.41733 28.661 2.16847 28.0601 3.06985C27.4591 3.97122 26.9889 4.97274 26.6231 6.07442C26.2573 7.1761 25.996 8.32785 25.8393 9.42952C25.6564 10.5813 25.5519 11.6329 25.4996 12.6344C25.4474 13.6359 25.4213 14.4872 25.4213 15.1883V30.8121C25.4213 31.5131 25.4474 32.3644 25.4996 33.3659C25.5519 34.3675 25.6564 35.4191 25.8393 36.5708C25.996 37.7226 26.2834 38.8243 26.6231 39.9259C26.9889 41.0276 27.4591 42.0291 28.0601 42.9806C28.661 43.882 29.4186 44.6331 30.3331 45.1339C31.2475 45.6847 32.3448 45.9852 33.625 45.9852C34.9053 45.9852 36.0026 45.6847 36.917 45.1339C37.8314 44.583 38.5891 43.882 39.19 42.9806C39.791 42.0792 40.2612 41.0777 40.627 39.9259C40.9928 38.8243 41.254 37.6725 41.4108 36.5708C41.5676 35.4191 41.6982 34.3675 41.7505 33.3659C41.8027 32.3644 41.8288 31.5131 41.8288 30.8121V15.1883ZM22.5473 1.11687C23.2005 1.11687 23.514 1.76786 23.514 2.96969V9.98036C23.514 10.5813 23.4356 11.032 23.2789 11.3825C23.1221 11.733 22.8608 11.8833 22.5473 11.8833H14.03C13.7165 11.8833 13.4813 12.0335 13.2985 12.3339C13.1156 12.6344 13.0372 13.1352 13.0372 13.7361V43.0307C13.0372 43.6316 12.9588 44.0823 12.8021 44.4328C12.6453 44.7332 12.384 44.9336 12.0705 44.9336H8.22988C7.91635 44.9336 7.68121 44.7833 7.49833 44.4328C7.34157 44.0823 7.23706 43.6316 7.23706 43.0307V3.01977C7.23706 2.41886 7.31544 1.91809 7.49833 1.61764C7.68121 1.31718 7.91635 1.16695 8.22988 1.16695L22.5473 1.11687Z" fill="#B59571"/>
<path d="M15.2841 24.9031C12.8543 24.5025 0.992788 28.2081 0.104479 24.202C-1.38474 17.5419 11.0777 21.2976 12.7498 21.3977C13.5859 21.4478 14.6309 21.7483 15.2318 21.4478C15.6499 21.1974 15.9373 19.8954 16.4075 19.3947C17.4526 18.1929 19.1509 18.8438 20.6139 19.0942C21.6068 19.2445 22.5735 19.4448 23.6185 19.595C22.1293 19.9956 20.5356 20.3962 18.968 20.7968C18.7851 20.8469 18.4977 20.6967 18.3671 21.0973C19.9608 21.598 21.7635 21.6982 23.4879 21.9486C21.7896 22.4493 19.8824 22.5495 18.2103 23.1504C18.3148 23.5009 18.6283 23.4008 18.8112 23.4509C20.3004 23.6512 21.9464 23.9015 23.514 24.0518C21.8942 24.5525 20.013 24.6527 18.3932 25.2536C18.4454 25.7544 18.7851 25.6041 18.9418 25.6041C20.4311 25.9547 22.1032 26.3553 23.6446 26.6057C21.9464 26.856 19.8563 27.6072 18.1058 27.8075C16.7472 27.9577 15.9373 26.4554 15.2841 24.9031Z" fill="#B59571"/>
<path d="M11.0777 25.3036C12.9588 25.0032 14.5525 24.7528 15.2841 24.853C15.6237 25.6542 15.9634 26.4053 16.4336 26.9562C16.8778 27.507 17.4003 27.8575 18.0796 27.7574C19.0463 27.6572 20.1175 27.3568 21.1626 27.1064C21.9202 26.9061 22.6518 26.7058 23.3311 26.6056C22.6518 26.5055 21.9725 26.3552 21.2671 26.205C20.4571 26.0548 19.6733 25.8545 18.9418 25.6542H18.8112C18.6283 25.6542 18.3931 25.6542 18.367 25.2536V25.2035H18.3931C19.2814 24.853 20.2743 24.6527 21.2671 24.5024C21.9464 24.4023 22.6257 24.252 23.2527 24.1018C22.077 23.9516 20.849 23.8014 19.6995 23.6511C19.4121 23.6011 19.1247 23.551 18.8373 23.551H18.7067C18.5238 23.551 18.3148 23.551 18.2102 23.2505L18.1841 23.2004H18.2102C19.1508 22.8499 20.1698 22.6496 21.1887 22.4994C21.868 22.3992 22.5734 22.249 23.2266 22.0988C22.8869 22.0487 22.5212 21.9986 22.1815 21.9485C20.8752 21.7983 19.5427 21.6481 18.367 21.2975H18.3148L18.3409 21.2475C18.4454 20.947 18.6283 20.947 18.785 20.947H18.9418L20.1959 20.6466C21.2409 20.3962 22.3121 20.0957 23.305 19.8453C22.704 19.7452 22.1031 19.645 21.5283 19.5449C21.2148 19.4948 20.9274 19.4447 20.5878 19.3947L19.804 19.2444C18.5499 18.994 17.2436 18.6936 16.4075 19.6951C16.1985 19.9455 16.0156 20.3461 15.8588 20.7467C15.6498 21.1974 15.4669 21.6481 15.2318 21.7983C14.8138 21.9986 14.1867 21.9485 13.5597 21.8484C13.2723 21.7983 12.9849 21.7482 12.7236 21.7482C12.4362 21.7482 11.8353 21.598 11.0515 21.4478C8.22984 20.5965 2.92612 19.5449 0.862111 21.2475C0.130563 21.8484 -0.182958 22.7498 0.130563 24.202C0.731477 26.9562 6.68837 26.0047 11.0777 25.3036ZM15.2841 24.9531C14.5525 24.853 12.9588 25.1033 11.0777 25.4038C6.68837 26.1049 0.705351 27.0563 0.0783096 24.202C-0.261338 22.6997 0.0783096 21.7482 0.835984 21.0972C2.92612 19.3946 8.22984 20.4463 11.0777 20.9971C11.8615 21.1473 12.4624 21.2975 12.7498 21.2975C13.011 21.2975 13.2984 21.3476 13.5858 21.3977C14.2129 21.4979 14.8138 21.5479 15.2318 21.3476C15.4408 21.2475 15.6237 20.7968 15.8327 20.3461C16.0156 19.9455 16.1724 19.5449 16.4075 19.2945C17.2697 18.293 18.576 18.5934 19.8562 18.8438L20.64 18.994C20.9274 19.0441 21.2671 19.0942 21.5806 19.1443C22.2599 19.2444 22.9392 19.3946 23.6446 19.4447L23.932 19.4948L23.6707 19.595C22.5995 19.8954 21.45 20.1959 20.3004 20.4963L19.0463 20.7968H18.8895C18.7589 20.7968 18.6021 20.7968 18.4976 20.9971C19.6733 21.3476 20.9797 21.4979 22.286 21.6481C22.7302 21.6982 23.1482 21.7482 23.5924 21.7983L23.8536 21.8484L23.5924 21.8985C22.8608 22.0988 22.077 22.249 21.2932 22.3992C20.3004 22.5995 19.2814 22.7498 18.367 23.1003C18.4454 23.3006 18.6283 23.3006 18.785 23.3006H18.9157C19.2031 23.3507 19.4905 23.4007 19.7779 23.4007C21.0319 23.6011 22.3383 23.7513 23.5924 23.9015L23.8536 23.9516L23.5924 24.0517C22.8608 24.252 22.1031 24.4023 21.3455 24.5525C20.3788 24.7528 19.4121 24.903 18.5238 25.2536C18.576 25.554 18.7589 25.5039 18.9157 25.5039H19.0463C19.804 25.6542 20.5878 25.8545 21.3716 26.0548C22.1554 26.205 22.9653 26.4053 23.723 26.5055V26.6056C22.9653 26.7058 22.1031 26.9562 21.2409 27.1565C20.1959 27.4068 19.1247 27.7073 18.158 27.8075C17.4787 27.9076 16.93 27.5571 16.4859 27.0062C15.9634 26.5055 15.5976 25.7543 15.2841 24.9531Z" fill="#B59571"/>
</g>
<defs>
<clipPath id="clip0_1601_42">
<rect width="80" height="46" fill="white"/>
</clipPath>
</defs>
</svg>
