<svg width="34" height="20" viewBox="0 0 34 20" fill="none" xmlns="http://www.w3.org/2000/svg">
<path d="M33.6144 1.47505C33.8978 2.24094 33.0273 4.02801 31.0029 6.83627C30.7195 7.21922 30.3551 7.72981 29.9097 8.36805C28.9785 9.55944 28.4522 10.3466 28.3307 10.7295C28.1283 11.2401 28.2092 11.7295 28.5736 12.1975C28.7761 12.4528 29.2417 12.9634 29.9705 13.7293H30.0312V13.7931C31.6912 15.3674 32.8046 16.7077 33.3714 17.814L33.4929 18.0693L33.6144 18.548V19.1543L33.1893 19.633L32.1568 19.8564L27.7234 19.984C27.44 20.0266 27.1059 19.984 26.7213 19.8564C26.3367 19.7287 26.0431 19.6011 25.8407 19.4735L25.4763 19.2182C25.1119 18.9629 24.707 18.5799 24.2617 18.0693C23.8163 17.5587 23.4215 17.0907 23.0774 16.6652C22.7332 16.2397 22.379 15.8887 22.0146 15.6121C21.6502 15.3355 21.3263 15.2398 21.0429 15.3249C21.0024 15.3249 20.9518 15.3462 20.891 15.3887C20.8303 15.4313 20.7291 15.527 20.5874 15.6759C20.4457 15.8248 20.3242 16.0057 20.223 16.2184C20.1218 16.4312 20.0307 16.7397 19.9497 17.1439C19.8687 17.5481 19.8282 18.0268 19.8282 18.5799C19.8282 18.7501 19.808 18.9097 19.7675 19.0586C19.727 19.2075 19.6865 19.3245 19.646 19.4096L19.5853 19.4735C19.3424 19.7287 19.0185 19.8564 18.6136 19.8564H16.6702C15.8199 19.9415 14.9595 19.8564 14.089 19.6011C13.2186 19.3458 12.4594 19.016 11.8116 18.6118C11.1638 18.2076 10.5767 17.8034 10.0504 17.3992C9.52402 16.9949 9.11915 16.6439 8.83573 16.3461L8.41061 15.8993C8.28914 15.8142 8.12719 15.644 7.92475 15.3887C7.72231 15.1334 7.30731 14.5803 6.67974 13.7293C6.05218 12.8783 5.43474 11.9635 4.82742 10.9848C4.2201 10.0062 3.51156 8.71909 2.7018 7.12348C1.89204 5.52788 1.14301 3.87909 0.454716 2.17711C0.37374 1.96436 0.333252 1.79417 0.333252 1.66652C0.333252 1.53887 0.353496 1.4325 0.393984 1.3474L0.454716 1.28357C0.616668 1.02828 0.940572 0.900629 1.42643 0.900629H6.22425C6.34572 0.900629 6.46718 0.932541 6.58865 0.996366L6.89231 1.15593L6.95304 1.21975C7.15548 1.3474 7.29719 1.53887 7.37816 1.79417C7.62109 2.38986 7.89438 3.01746 8.19804 3.67698C8.5017 4.33649 8.73451 4.83645 8.89646 5.17685L9.13939 5.68744C9.50378 6.41078 9.83781 7.03838 10.1415 7.57025C10.4451 8.10212 10.7184 8.51698 10.9613 8.81482C11.2043 9.11267 11.4472 9.34669 11.6901 9.51689C11.9331 9.68709 12.1355 9.77218 12.2975 9.77218C12.4594 9.77218 12.6214 9.75091 12.7833 9.70836L12.844 9.61262L13.0566 9.19777L13.2995 8.36805L13.4514 6.9001V4.60243C13.4109 4.13439 13.3501 3.69825 13.2692 3.29403C13.1882 2.88981 13.1072 2.60261 13.0262 2.43241L12.9655 2.24094C12.6821 1.81544 12.176 1.53887 11.4472 1.41122C11.3257 1.41122 11.3662 1.2623 11.5687 0.964454C11.7711 0.751706 11.9938 0.581509 12.2367 0.45386C12.844 0.113465 14.2206 -0.0354579 16.3665 0.00709157C17.2977 0.00709157 18.0872 0.0921904 18.735 0.262388C18.9375 0.304938 19.1197 0.379399 19.2816 0.485773C19.4436 0.592146 19.565 0.741069 19.646 0.932541C19.727 1.12401 19.7877 1.31549 19.8282 1.50696C19.8687 1.69843 19.889 1.975 19.889 2.33667V3.32595C19.8485 3.66634 19.8282 4.09184 19.8282 4.60243V6.13421C19.8282 6.26186 19.8181 6.51715 19.7979 6.9001C19.7776 7.28304 19.7675 7.58089 19.7675 7.79364C19.7675 8.00638 19.7877 8.25104 19.8282 8.52761C19.8687 8.80418 19.9396 9.03821 20.0408 9.22968C20.142 9.42115 20.2736 9.55944 20.4355 9.64454C20.5165 9.68709 20.6076 9.719 20.7088 9.74027C20.8101 9.76155 20.9619 9.69772 21.1643 9.5488C21.3668 9.39988 21.5894 9.18713 21.8324 8.91056C22.0753 8.63399 22.379 8.21913 22.7434 7.66599C23.1077 7.11284 23.4924 6.4746 23.8973 5.75126C24.5856 4.47478 25.2131 3.09192 25.78 1.60269C25.8204 1.5176 25.871 1.42186 25.9318 1.31549C25.9925 1.20911 26.0634 1.13465 26.1443 1.0921H26.2051L26.2658 1.02828L26.5087 0.964454H26.8731L31.8531 0.900629C32.2985 0.85808 32.673 0.879355 32.9767 0.964454C33.2803 1.04955 33.4524 1.15593 33.4929 1.28357L33.6144 1.47505Z" fill="#B59571"/>
</svg>
