<svg width="40" height="32" viewBox="0 0 40 32" fill="none" xmlns="http://www.w3.org/2000/svg">
<g filter="url(#filter0_d_1601_52)">
<path d="M35.9686 4.37291C35.7799 3.69978 35.4124 3.09036 34.905 2.60943C34.3833 2.11372 33.7439 1.75912 33.0471 1.57911C30.4394 0.891773 19.9918 0.891773 19.9918 0.891773C15.6363 0.842219 11.2819 1.06017 6.95311 1.5444C6.25632 1.73771 5.61809 2.10023 5.09521 2.59971C4.58144 3.09404 4.2093 3.70362 4.0149 4.37153C3.54792 6.88726 3.32103 9.44167 3.33728 12.0003C3.32062 14.5567 3.54696 17.1103 4.0149 19.6291C4.20514 20.2942 4.57589 20.901 5.09104 21.3912C5.6062 21.8814 6.24772 22.2355 6.95311 22.4229C9.59556 23.1089 19.9918 23.1089 19.9918 23.1089C24.3528 23.1585 28.7128 22.9405 33.0471 22.4562C33.7439 22.2762 34.3833 21.9216 34.905 21.4259C35.4188 20.9358 35.784 20.3262 35.9673 19.6624C36.4464 17.1477 36.6794 14.5922 36.6629 12.0323C36.699 9.46147 36.4663 6.89395 35.9686 4.37153V4.37291ZM16.6703 16.7548V7.24725L25.3628 12.0017L16.6703 16.7548Z" fill="#B59571"/>
</g>
<defs>
<filter id="filter0_d_1601_52" x="-0.663574" y="0.884888" width="41.3301" height="30.2308" filterUnits="userSpaceOnUse" color-interpolation-filters="sRGB">
<feFlood flood-opacity="0" result="BackgroundImageFix"/>
<feColorMatrix in="SourceAlpha" type="matrix" values="0 0 0 0 0 0 0 0 0 0 0 0 0 0 0 0 0 0 127 0" result="hardAlpha"/>
<feOffset dy="4"/>
<feGaussianBlur stdDeviation="2"/>
<feComposite in2="hardAlpha" operator="out"/>
<feColorMatrix type="matrix" values="0 0 0 0 0 0 0 0 0 0 0 0 0 0 0 0 0 0 0.25 0"/>
<feBlend mode="normal" in2="BackgroundImageFix" result="effect1_dropShadow_1601_52"/>
<feBlend mode="normal" in="SourceGraphic" in2="effect1_dropShadow_1601_52" result="shape"/>
</filter>
</defs>
</svg>
